<svg width="2568pt" height="424pt"
 viewBox="0.00 0.00 2567.90 424.00" xmlns="http://www.w3.org/2000/svg" xmlns:xlink="http://www.w3.org/1999/xlink">
<g id="graph0" class="graph" transform="scale(1 1) rotate(0) translate(4 420)">
<title>G</title>
<polygon fill="white" stroke="transparent" points="-4,4 -4,-420 2563.9,-420 2563.9,4 -4,4"/>
<g id="clust1" class="cluster">
<title>cluster_L</title>
<polygon fill="none" stroke="black" points="1081.74,-336 1081.74,-408 1339.74,-408 1339.74,-336 1081.74,-336"/>
</g>
<!-- legend -->
<g id="node1" class="node">
<title>legend</title>
<polygon fill="#f8f8f8" stroke="black" points="1331.87,-400 1089.61,-400 1089.61,-344 1331.87,-344 1331.87,-400"/>
<text text-anchor="start" x="1097.43" y="-386.4" font-family="Times,serif" font-size="12.00">System: NPM</text>
<text text-anchor="start" x="1097.43" y="-374.4" font-family="Times,serif" font-size="12.00">Package: d3</text>
<text text-anchor="start" x="1097.43" y="-362.4" font-family="Times,serif" font-size="12.00">Version: 5.0.0</text>
<text text-anchor="start" x="1097.43" y="-350.4" font-family="Times,serif" font-size="12.00">Min refresh time: 2020&#45;05&#45;11T13:08:55+10:00</text>
</g>
<!-- 0 -->
<g id="node2" class="node">
<title>0</title>
<polygon fill="#eceae8" stroke="#cdc3b4" points="1405.24,-390 1350.24,-390 1350.24,-354 1405.24,-354 1405.24,-390"/>
<text text-anchor="middle" x="1377.74" y="-368.4" font-family="Times,serif" font-size="12.00">d3 5.0.0</text>
</g>
<!-- 1 -->
<g id="node3" class="node">
<title>1</title>
<polygon fill="#eceae8" stroke="#cdc3b4" points="222.38,-208 139.1,-208 139.1,-172 222.38,-172 222.38,-208"/>
<text text-anchor="middle" x="180.74" y="-186.4" font-family="Times,serif" font-size="12.00">d3&#45;array 1.2.4</text>
</g>
<!-- 0&#45;&gt;1 -->
<g id="edge1" class="edge">
<title>0&#45;&gt;1</title>
<path fill="none" stroke="#b2a594" d="M1365.85,-353.78C1360.06,-346.9 1352.46,-339.73 1343.74,-336 1314.35,-323.42 224.58,-328.9 192.74,-326 110.51,-318.5 62.86,-357.21 9.74,-294 -29.41,-247.41 65.61,-216.27 129.16,-201.31"/>
<polygon fill="#b2a594" stroke="#b2a594" points="130.09,-204.69 139.06,-199.05 128.53,-197.86 130.09,-204.69"/>
<text text-anchor="middle" x="13.24" y="-271.8" font-family="Times,serif" font-size="14.00">1</text>
</g>
<!-- 2 -->
<g id="node4" class="node">
<title>2</title>
<polygon fill="#eceae8" stroke="#cdc3b4" points="1950.07,-294 1865.41,-294 1865.41,-258 1950.07,-258 1950.07,-294"/>
<text text-anchor="middle" x="1907.74" y="-272.4" font-family="Times,serif" font-size="12.00">d3&#45;axis 1.0.12</text>
</g>
<!-- 0&#45;&gt;2 -->
<g id="edge2" class="edge">
<title>0&#45;&gt;2</title>
<path fill="none" stroke="#b2a594" d="M1405.27,-370.59C1493.86,-368.93 1770.51,-360.99 1851.74,-326 1864.66,-320.43 1876.72,-310.74 1886.32,-301.43"/>
<polygon fill="#b2a594" stroke="#b2a594" points="1888.96,-303.73 1893.45,-294.14 1883.96,-298.84 1888.96,-303.73"/>
<text text-anchor="middle" x="1878.24" y="-314.8" font-family="Times,serif" font-size="14.00">1</text>
</g>
<!-- 3 -->
<g id="node5" class="node">
<title>3</title>
<polygon fill="#eceae8" stroke="#cdc3b4" points="698.4,-294 613.08,-294 613.08,-258 698.4,-258 698.4,-294"/>
<text text-anchor="middle" x="655.74" y="-272.4" font-family="Times,serif" font-size="12.00">d3&#45;brush 1.1.5</text>
</g>
<!-- 0&#45;&gt;3 -->
<g id="edge3" class="edge">
<title>0&#45;&gt;3</title>
<path fill="none" stroke="#b2a594" d="M1365.83,-353.82C1360.04,-346.94 1352.45,-339.77 1343.74,-336 1314.93,-323.52 809.52,-332.19 778.74,-326 750.91,-320.41 721.31,-308.81 698.12,-298.3"/>
<polygon fill="#b2a594" stroke="#b2a594" points="699.47,-295.06 688.93,-294.04 696.53,-301.42 699.47,-295.06"/>
<text text-anchor="middle" x="782.24" y="-314.8" font-family="Times,serif" font-size="14.00">1</text>
</g>
<!-- 4 -->
<g id="node6" class="node">
<title>4</title>
<polygon fill="#eceae8" stroke="#cdc3b4" points="326.06,-294 239.42,-294 239.42,-258 326.06,-258 326.06,-294"/>
<text text-anchor="middle" x="282.74" y="-272.4" font-family="Times,serif" font-size="12.00">d3&#45;chord 1.0.6</text>
</g>
<!-- 0&#45;&gt;4 -->
<g id="edge4" class="edge">
<title>0&#45;&gt;4</title>
<path fill="none" stroke="#b2a594" d="M1365.85,-353.79C1360.06,-346.91 1352.46,-339.74 1343.74,-336 1296.1,-315.56 461.66,-335.7 410.74,-326 381.75,-320.48 350.8,-308.81 326.6,-298.24"/>
<polygon fill="#b2a594" stroke="#b2a594" points="327.9,-294.98 317.34,-294.1 325.05,-301.38 327.9,-294.98"/>
<text text-anchor="middle" x="414.24" y="-314.8" font-family="Times,serif" font-size="14.00">1</text>
</g>
<!-- 5 -->
<g id="node7" class="node">
<title>5</title>
<polygon fill="#eceae8" stroke="#cdc3b4" points="1482.05,-208 1375.43,-208 1375.43,-172 1482.05,-172 1482.05,-208"/>
<text text-anchor="middle" x="1428.74" y="-186.4" font-family="Times,serif" font-size="12.00">d3&#45;collection 1.0.7</text>
</g>
<!-- 0&#45;&gt;5 -->
<g id="edge5" class="edge">
<title>0&#45;&gt;5</title>
<path fill="none" stroke="#b2a594" d="M1383.2,-353.95C1385.84,-345.55 1389.03,-335.27 1391.74,-326 1402.64,-288.73 1414.35,-245.39 1421.61,-218.08"/>
<polygon fill="#b2a594" stroke="#b2a594" points="1425.08,-218.66 1424.25,-208.1 1418.31,-216.87 1425.08,-218.66"/>
<text text-anchor="middle" x="1414.24" y="-271.8" font-family="Times,serif" font-size="14.00">1</text>
</g>
<!-- 6 -->
<g id="node8" class="node">
<title>6</title>
<polygon fill="#eceae8" stroke="#cdc3b4" points="1197.39,-36 1114.09,-36 1114.09,0 1197.39,0 1197.39,-36"/>
<text text-anchor="middle" x="1155.74" y="-14.4" font-family="Times,serif" font-size="12.00">d3&#45;color 1.4.1</text>
</g>
<!-- 0&#45;&gt;6 -->
<g id="edge6" class="edge">
<title>0&#45;&gt;6</title>
<path fill="none" stroke="#b2a594" d="M1405.41,-369.52C1464.48,-365.9 1606.95,-354.7 1722.74,-326 1762.33,-316.19 1773.22,-314.04 1808.74,-294 1815.27,-290.32 1909.67,-214.84 1912.74,-208 1919.3,-193.4 1918.37,-186.98 1912.74,-172 1862.44,-38.13 1370.36,-21.13 1207.66,-19.18"/>
<polygon fill="#b2a594" stroke="#b2a594" points="1207.47,-15.67 1197.43,-19.07 1207.39,-22.67 1207.47,-15.67"/>
<text text-anchor="middle" x="1921.24" y="-185.8" font-family="Times,serif" font-size="14.00">1</text>
</g>
<!-- 7 -->
<g id="node9" class="node">
<title>7</title>
<polygon fill="#eceae8" stroke="#cdc3b4" points="121.39,-294 26.09,-294 26.09,-258 121.39,-258 121.39,-294"/>
<text text-anchor="middle" x="73.74" y="-272.4" font-family="Times,serif" font-size="12.00">d3&#45;contour 1.3.2</text>
</g>
<!-- 0&#45;&gt;7 -->
<g id="edge7" class="edge">
<title>0&#45;&gt;7</title>
<path fill="none" stroke="#b2a594" d="M1365.85,-353.78C1360.06,-346.9 1352.46,-339.74 1343.74,-336 1316.44,-324.31 304.24,-329.38 274.74,-326 225.56,-320.37 171.08,-306.6 131.26,-295.09"/>
<polygon fill="#b2a594" stroke="#b2a594" points="132.04,-291.67 121.46,-292.21 130.07,-298.39 132.04,-291.67"/>
<text text-anchor="middle" x="278.24" y="-314.8" font-family="Times,serif" font-size="14.00">1</text>
</g>
<!-- 8 -->
<g id="node10" class="node">
<title>8</title>
<polygon fill="#eceae8" stroke="#cdc3b4" points="813.23,-122 714.25,-122 714.25,-86 813.23,-86 813.23,-122"/>
<text text-anchor="middle" x="763.74" y="-100.4" font-family="Times,serif" font-size="12.00">d3&#45;dispatch 1.0.6</text>
</g>
<!-- 0&#45;&gt;8 -->
<g id="edge8" class="edge">
<title>0&#45;&gt;8</title>
<path fill="none" stroke="#b2a594" d="M1365.81,-353.86C1360.02,-347 1352.43,-339.82 1343.74,-336 1308.33,-320.43 1033.33,-335.13 995.74,-326 909.97,-305.17 876.81,-304.67 816.74,-240 809.05,-231.72 786.06,-168.6 773.03,-131.67"/>
<polygon fill="#b2a594" stroke="#b2a594" points="776.25,-130.29 769.64,-122.02 769.65,-132.61 776.25,-130.29"/>
<text text-anchor="middle" x="820.24" y="-228.8" font-family="Times,serif" font-size="14.00">1</text>
</g>
<!-- 9 -->
<g id="node11" class="node">
<title>9</title>
<polygon fill="#eceae8" stroke="#cdc3b4" points="632.06,-208 551.42,-208 551.42,-172 632.06,-172 632.06,-208"/>
<text text-anchor="middle" x="591.74" y="-186.4" font-family="Times,serif" font-size="12.00">d3&#45;drag 1.2.5</text>
</g>
<!-- 0&#45;&gt;9 -->
<g id="edge9" class="edge">
<title>0&#45;&gt;9</title>
<path fill="none" stroke="#b2a594" d="M1365.84,-353.81C1360.05,-346.94 1352.45,-339.77 1343.74,-336 1312.43,-322.46 763.59,-330.29 729.74,-326 669.43,-318.35 635.52,-340.83 596.74,-294 579.49,-273.17 580.86,-241.05 584.88,-218.23"/>
<polygon fill="#b2a594" stroke="#b2a594" points="588.36,-218.66 586.92,-208.16 581.5,-217.26 588.36,-218.66"/>
<text text-anchor="middle" x="600.24" y="-271.8" font-family="Times,serif" font-size="14.00">1</text>
</g>
<!-- 10 -->
<g id="node12" class="node">
<title>10</title>
<polygon fill="#eceae8" stroke="#cdc3b4" points="2089.41,-208 2014.07,-208 2014.07,-172 2089.41,-172 2089.41,-208"/>
<text text-anchor="middle" x="2051.74" y="-186.4" font-family="Times,serif" font-size="12.00">d3&#45;dsv 1.2.0</text>
</g>
<!-- 0&#45;&gt;10 -->
<g id="edge10" class="edge">
<title>0&#45;&gt;10</title>
<path fill="none" stroke="#b2a594" d="M1405.25,-371.66C1482.4,-372.85 1706.91,-371.8 1885.74,-326 1920.06,-317.21 1930.01,-314.72 1958.74,-294 1967.05,-288.01 2005.34,-244.55 2030.13,-216.03"/>
<polygon fill="#b2a594" stroke="#b2a594" points="2032.81,-218.27 2036.72,-208.42 2027.52,-213.68 2032.81,-218.27"/>
<text text-anchor="middle" x="1996.24" y="-271.8" font-family="Times,serif" font-size="14.00">1</text>
</g>
<!-- 11 -->
<g id="node13" class="node">
<title>11</title>
<polygon fill="#eceae8" stroke="#cdc3b4" points="1171.39,-122 1092.1,-122 1092.1,-86 1171.39,-86 1171.39,-122"/>
<text text-anchor="middle" x="1131.74" y="-100.4" font-family="Times,serif" font-size="12.00">d3&#45;ease 1.0.6</text>
</g>
<!-- 0&#45;&gt;11 -->
<g id="edge11" class="edge">
<title>0&#45;&gt;11</title>
<path fill="none" stroke="#b2a594" d="M1400.73,-353.92C1446.76,-317.72 1541.68,-231.69 1490.74,-172 1446.85,-120.56 1261.92,-138.39 1181.96,-122.91"/>
<polygon fill="#b2a594" stroke="#b2a594" points="1182.37,-119.41 1171.84,-120.61 1180.82,-126.24 1182.37,-119.41"/>
<text text-anchor="middle" x="1507.24" y="-228.8" font-family="Times,serif" font-size="14.00">1</text>
</g>
<!-- 12 -->
<g id="node14" class="node">
<title>12</title>
<polygon fill="#eceae8" stroke="#cdc3b4" points="2093.22,-294 2010.26,-294 2010.26,-258 2093.22,-258 2093.22,-294"/>
<text text-anchor="middle" x="2051.74" y="-272.4" font-family="Times,serif" font-size="12.00">d3&#45;fetch 1.2.0</text>
</g>
<!-- 0&#45;&gt;12 -->
<g id="edge12" class="edge">
<title>0&#45;&gt;12</title>
<path fill="none" stroke="#b2a594" d="M1405.43,-371.43C1511.44,-372.71 1890.95,-373.8 1999.74,-326 2011.98,-320.62 2023.14,-311.08 2031.95,-301.84"/>
<polygon fill="#b2a594" stroke="#b2a594" points="2034.69,-304.02 2038.77,-294.25 2029.48,-299.35 2034.69,-304.02"/>
<text text-anchor="middle" x="2025.24" y="-314.8" font-family="Times,serif" font-size="14.00">1</text>
</g>
<!-- 13 -->
<g id="node15" class="node">
<title>13</title>
<polygon fill="#eceae8" stroke="#cdc3b4" points="1309.38,-294 1226.1,-294 1226.1,-258 1309.38,-258 1309.38,-294"/>
<text text-anchor="middle" x="1267.74" y="-272.4" font-family="Times,serif" font-size="12.00">d3&#45;force 1.2.1</text>
</g>
<!-- 0&#45;&gt;13 -->
<g id="edge13" class="edge">
<title>0&#45;&gt;13</title>
<path fill="none" stroke="#b2a594" d="M1361.94,-353.79C1356.36,-347.96 1349.93,-341.54 1343.74,-336 1329.83,-323.55 1313.57,-310.72 1299.67,-300.22"/>
<polygon fill="#b2a594" stroke="#b2a594" points="1301.47,-297.19 1291.37,-294 1297.28,-302.8 1301.47,-297.19"/>
<text text-anchor="middle" x="1336.24" y="-314.8" font-family="Times,serif" font-size="14.00">1</text>
</g>
<!-- 14 -->
<g id="node16" class="node">
<title>14</title>
<polygon fill="#eceae8" stroke="#cdc3b4" points="1887.22,-208 1796.26,-208 1796.26,-172 1887.22,-172 1887.22,-208"/>
<text text-anchor="middle" x="1841.74" y="-186.4" font-family="Times,serif" font-size="12.00">d3&#45;format 1.4.4</text>
</g>
<!-- 0&#45;&gt;14 -->
<g id="edge14" class="edge">
<title>0&#45;&gt;14</title>
<path fill="none" stroke="#b2a594" d="M1405.34,-369.55C1455.1,-366.24 1562.57,-355.97 1647.74,-326 1675.15,-316.36 1680.41,-309.88 1704.74,-294 1743.36,-268.8 1785.43,-236.37 1812.61,-214.69"/>
<polygon fill="#b2a594" stroke="#b2a594" points="1814.94,-217.31 1820.55,-208.33 1810.56,-211.85 1814.94,-217.31"/>
<text text-anchor="middle" x="1760.24" y="-271.8" font-family="Times,serif" font-size="14.00">1</text>
</g>
<!-- 15 -->
<g id="node17" class="node">
<title>15</title>
<polygon fill="#eceae8" stroke="#cdc3b4" points="222.06,-294 139.42,-294 139.42,-258 222.06,-258 222.06,-294"/>
<text text-anchor="middle" x="180.74" y="-272.4" font-family="Times,serif" font-size="12.00">d3&#45;geo 1.12.1</text>
</g>
<!-- 0&#45;&gt;15 -->
<g id="edge15" class="edge">
<title>0&#45;&gt;15</title>
<path fill="none" stroke="#b2a594" d="M1365.85,-353.78C1360.06,-346.9 1352.46,-339.74 1343.74,-336 1318.44,-325.15 380.03,-329.66 352.74,-326 311.15,-320.42 265.53,-307.08 231.73,-295.72"/>
<polygon fill="#b2a594" stroke="#b2a594" points="232.68,-292.34 222.08,-292.42 230.41,-298.97 232.68,-292.34"/>
<text text-anchor="middle" x="356.24" y="-314.8" font-family="Times,serif" font-size="14.00">1</text>
</g>
<!-- 16 -->
<g id="node18" class="node">
<title>16</title>
<polygon fill="#eceae8" stroke="#cdc3b4" points="2216.04,-294 2111.44,-294 2111.44,-258 2216.04,-258 2216.04,-294"/>
<text text-anchor="middle" x="2163.74" y="-272.4" font-family="Times,serif" font-size="12.00">d3&#45;hierarchy 1.1.9</text>
</g>
<!-- 0&#45;&gt;16 -->
<g id="edge16" class="edge">
<title>0&#45;&gt;16</title>
<path fill="none" stroke="#b2a594" d="M1405.32,-370.17C1513.64,-366.73 1910.06,-352.57 2032.74,-326 2061.65,-319.74 2092.72,-308.34 2117.33,-298.11"/>
<polygon fill="#b2a594" stroke="#b2a594" points="2118.93,-301.24 2126.78,-294.11 2116.2,-294.79 2118.93,-301.24"/>
<text text-anchor="middle" x="2084.24" y="-314.8" font-family="Times,serif" font-size="14.00">1</text>
</g>
<!-- 17 -->
<g id="node19" class="node">
<title>17</title>
<polygon fill="#eceae8" stroke="#cdc3b4" points="1074.05,-122 963.43,-122 963.43,-86 1074.05,-86 1074.05,-122"/>
<text text-anchor="middle" x="1018.74" y="-100.4" font-family="Times,serif" font-size="12.00">d3&#45;interpolate 1.4.0</text>
</g>
<!-- 0&#45;&gt;17 -->
<g id="edge17" class="edge">
<title>0&#45;&gt;17</title>
<path fill="none" stroke="#b2a594" d="M1365.37,-353.78C1359.59,-347.08 1352.13,-340.05 1343.74,-336 1303.11,-316.41 1286.41,-337.31 1242.74,-326 1146.88,-301.17 1111.93,-288.13 1053.74,-208 1051.41,-204.79 1037.04,-161.35 1027.45,-131.92"/>
<polygon fill="#b2a594" stroke="#b2a594" points="1030.7,-130.61 1024.29,-122.18 1024.05,-132.77 1030.7,-130.61"/>
<text text-anchor="middle" x="1082.24" y="-228.8" font-family="Times,serif" font-size="14.00">1</text>
</g>
<!-- 18 -->
<g id="node20" class="node">
<title>18</title>
<polygon fill="#eceae8" stroke="#cdc3b4" points="409.4,-208 330.08,-208 330.08,-172 409.4,-172 409.4,-208"/>
<text text-anchor="middle" x="369.74" y="-186.4" font-family="Times,serif" font-size="12.00">d3&#45;path 1.0.9</text>
</g>
<!-- 0&#45;&gt;18 -->
<g id="edge18" class="edge">
<title>0&#45;&gt;18</title>
<path fill="none" stroke="#b2a594" d="M1365.84,-353.79C1360.06,-346.91 1352.46,-339.75 1343.74,-336 1299.99,-317.2 528.89,-348.15 486.74,-326 454,-308.79 462.78,-286.12 438.74,-258 425.77,-242.83 409.87,-227.22 396.6,-214.88"/>
<polygon fill="#b2a594" stroke="#b2a594" points="398.87,-212.22 389.13,-208.03 394.13,-217.37 398.87,-212.22"/>
<text text-anchor="middle" x="462.24" y="-271.8" font-family="Times,serif" font-size="14.00">1</text>
</g>
<!-- 19 -->
<g id="node21" class="node">
<title>19</title>
<polygon fill="#eceae8" stroke="#cdc3b4" points="2332.07,-294 2233.41,-294 2233.41,-258 2332.07,-258 2332.07,-294"/>
<text text-anchor="middle" x="2282.74" y="-272.4" font-family="Times,serif" font-size="12.00">d3&#45;polygon 1.0.6</text>
</g>
<!-- 0&#45;&gt;19 -->
<g id="edge19" class="edge">
<title>0&#45;&gt;19</title>
<path fill="none" stroke="#b2a594" d="M1405.49,-370.97C1501.29,-370.51 1826.76,-365.92 2091.74,-326 2136.64,-319.24 2186.29,-306.33 2223.72,-295.45"/>
<polygon fill="#b2a594" stroke="#b2a594" points="2224.84,-298.77 2233.44,-292.6 2222.86,-292.06 2224.84,-298.77"/>
<text text-anchor="middle" x="2165.24" y="-314.8" font-family="Times,serif" font-size="14.00">1</text>
</g>
<!-- 20 -->
<g id="node22" class="node">
<title>20</title>
<polygon fill="#eceae8" stroke="#cdc3b4" points="1358.05,-208 1257.44,-208 1257.44,-172 1358.05,-172 1358.05,-208"/>
<text text-anchor="middle" x="1307.74" y="-186.4" font-family="Times,serif" font-size="12.00">d3&#45;quadtree 1.0.7</text>
</g>
<!-- 0&#45;&gt;20 -->
<g id="edge20" class="edge">
<title>0&#45;&gt;20</title>
<path fill="none" stroke="#b2a594" d="M1380.66,-353.84C1384.63,-325.05 1388.63,-266.21 1363.74,-226 1361.13,-221.77 1357.79,-217.98 1354.05,-214.58"/>
<polygon fill="#b2a594" stroke="#b2a594" points="1355.95,-211.62 1345.92,-208.18 1351.61,-217.11 1355.95,-211.62"/>
<text text-anchor="middle" x="1387.24" y="-271.8" font-family="Times,serif" font-size="14.00">1</text>
</g>
<!-- 21 -->
<g id="node23" class="node">
<title>21</title>
<polygon fill="#eceae8" stroke="#cdc3b4" points="2445.39,-294 2350.09,-294 2350.09,-258 2445.39,-258 2445.39,-294"/>
<text text-anchor="middle" x="2397.74" y="-272.4" font-family="Times,serif" font-size="12.00">d3&#45;random 1.1.2</text>
</g>
<!-- 0&#45;&gt;21 -->
<g id="edge21" class="edge">
<title>0&#45;&gt;21</title>
<path fill="none" stroke="#b2a594" d="M1405.32,-370.75C1507.44,-369.55 1873.63,-362.79 2172.74,-326 2245.09,-317.1 2265.26,-312.39 2340.04,-294.07"/>
<polygon fill="#b2a594" stroke="#b2a594" points="2341.06,-297.42 2349.94,-291.64 2339.4,-290.62 2341.06,-297.42"/>
<text text-anchor="middle" x="2266.24" y="-314.8" font-family="Times,serif" font-size="14.00">1</text>
</g>
<!-- 22 -->
<g id="node24" class="node">
<title>22</title>
<polygon fill="#eceae8" stroke="#cdc3b4" points="1658.22,-294 1575.26,-294 1575.26,-258 1658.22,-258 1658.22,-294"/>
<text text-anchor="middle" x="1616.74" y="-272.4" font-family="Times,serif" font-size="12.00">d3&#45;scale 2.2.2</text>
</g>
<!-- 0&#45;&gt;22 -->
<g id="edge22" class="edge">
<title>0&#45;&gt;22</title>
<path fill="none" stroke="#b2a594" d="M1405.41,-368.45C1442.75,-364.1 1510.5,-352.92 1561.74,-326 1573.59,-319.77 1584.95,-310.44 1594.23,-301.59"/>
<polygon fill="#b2a594" stroke="#b2a594" points="1596.89,-303.88 1601.51,-294.35 1591.95,-298.92 1596.89,-303.88"/>
<text text-anchor="middle" x="1586.24" y="-314.8" font-family="Times,serif" font-size="14.00">2</text>
</g>
<!-- 23 -->
<g id="node25" class="node">
<title>23</title>
<polygon fill="#eceae8" stroke="#cdc3b4" points="1197.19,-208 1062.29,-208 1062.29,-172 1197.19,-172 1197.19,-208"/>
<text text-anchor="middle" x="1129.74" y="-186.4" font-family="Times,serif" font-size="12.00">d3&#45;scale&#45;chromatic 1.5.0</text>
</g>
<!-- 0&#45;&gt;23 -->
<g id="edge23" class="edge">
<title>0&#45;&gt;23</title>
<path fill="none" stroke="#b2a594" d="M1364.28,-353.88C1358.53,-347.51 1351.39,-340.7 1343.74,-336 1331.05,-328.19 1325.96,-330.45 1311.74,-326 1266.4,-311.8 1248.76,-321.11 1209.74,-294 1180.85,-273.93 1157.56,-240.28 1143.71,-216.93"/>
<polygon fill="#b2a594" stroke="#b2a594" points="1146.73,-215.15 1138.71,-208.23 1140.66,-218.64 1146.73,-215.15"/>
<text text-anchor="middle" x="1213.24" y="-271.8" font-family="Times,serif" font-size="14.00">1</text>
</g>
<!-- 24 -->
<g id="node26" class="node">
<title>24</title>
<polygon fill="#eceae8" stroke="#cdc3b4" points="577.39,-122 476.09,-122 476.09,-86 577.39,-86 577.39,-122"/>
<text text-anchor="middle" x="526.74" y="-100.4" font-family="Times,serif" font-size="12.00">d3&#45;selection 1.4.1</text>
</g>
<!-- 0&#45;&gt;24 -->
<g id="edge24" class="edge">
<title>0&#45;&gt;24</title>
<path fill="none" stroke="#b2a594" d="M1365.84,-353.8C1360.05,-346.92 1352.45,-339.75 1343.74,-336 1306.44,-319.93 650.41,-341.18 612.74,-326 541.58,-297.32 517.26,-278.39 486.74,-208 474.66,-180.13 479.56,-166.87 493.74,-140 495.62,-136.45 497.95,-132.99 500.51,-129.72"/>
<polygon fill="#b2a594" stroke="#b2a594" points="503.27,-131.88 507.19,-122.04 497.99,-127.29 503.27,-131.88"/>
<text text-anchor="middle" x="506.24" y="-228.8" font-family="Times,serif" font-size="14.00">1</text>
</g>
<!-- 25 -->
<g id="node27" class="node">
<title>25</title>
<polygon fill="#eceae8" stroke="#cdc3b4" points="430.06,-294 343.42,-294 343.42,-258 430.06,-258 430.06,-294"/>
<text text-anchor="middle" x="386.74" y="-272.4" font-family="Times,serif" font-size="12.00">d3&#45;shape 1.3.7</text>
</g>
<!-- 0&#45;&gt;25 -->
<g id="edge25" class="edge">
<title>0&#45;&gt;25</title>
<path fill="none" stroke="#b2a594" d="M1365.85,-353.79C1360.06,-346.91 1352.46,-339.74 1343.74,-336 1297.84,-316.3 491.55,-343.42 444.74,-326 430.96,-320.87 418.17,-310.91 408.13,-301.29"/>
<polygon fill="#b2a594" stroke="#b2a594" points="410.54,-298.75 401.02,-294.1 405.56,-303.67 410.54,-298.75"/>
<text text-anchor="middle" x="448.24" y="-314.8" font-family="Times,serif" font-size="14.00">1</text>
</g>
<!-- 26 -->
<g id="node28" class="node">
<title>26</title>
<polygon fill="#eceae8" stroke="#cdc3b4" points="1760.07,-122 1679.42,-122 1679.42,-86 1760.07,-86 1760.07,-122"/>
<text text-anchor="middle" x="1719.74" y="-100.4" font-family="Times,serif" font-size="12.00">d3&#45;time 1.1.0</text>
</g>
<!-- 0&#45;&gt;26 -->
<g id="edge26" class="edge">
<title>0&#45;&gt;26</title>
<path fill="none" stroke="#b2a594" d="M1405.37,-370.55C1471.55,-368.46 1642.92,-356.87 1767.74,-294 1768.7,-293.52 1895.24,-208.95 1895.74,-208 1924.92,-153.25 1831.67,-125.19 1769.94,-112.94"/>
<polygon fill="#b2a594" stroke="#b2a594" points="1770.43,-109.47 1759.95,-111.04 1769.12,-116.34 1770.43,-109.47"/>
<text text-anchor="middle" x="1873.24" y="-228.8" font-family="Times,serif" font-size="14.00">1</text>
</g>
<!-- 27 -->
<g id="node29" class="node">
<title>27</title>
<polygon fill="#eceae8" stroke="#cdc3b4" points="1778.05,-208 1661.43,-208 1661.43,-172 1778.05,-172 1778.05,-208"/>
<text text-anchor="middle" x="1719.74" y="-186.4" font-family="Times,serif" font-size="12.00">d3&#45;time&#45;format 2.2.3</text>
</g>
<!-- 0&#45;&gt;27 -->
<g id="edge27" class="edge">
<title>0&#45;&gt;27</title>
<path fill="none" stroke="#b2a594" d="M1405.27,-371.78C1461.91,-371.85 1592.39,-363.87 1666.74,-294 1688.98,-273.1 1703.48,-240.78 1711.6,-217.93"/>
<polygon fill="#b2a594" stroke="#b2a594" points="1715.01,-218.77 1714.88,-208.17 1708.37,-216.53 1715.01,-218.77"/>
<text text-anchor="middle" x="1697.24" y="-271.8" font-family="Times,serif" font-size="14.00">2</text>
</g>
<!-- 28 -->
<g id="node30" class="node">
<title>28</title>
<polygon fill="#eceae8" stroke="#cdc3b4" points="1323.06,-122 1232.42,-122 1232.42,-86 1323.06,-86 1323.06,-122"/>
<text text-anchor="middle" x="1277.74" y="-100.4" font-family="Times,serif" font-size="12.00">d3&#45;timer 1.0.10</text>
</g>
<!-- 0&#45;&gt;28 -->
<g id="edge28" class="edge">
<title>0&#45;&gt;28</title>
<path fill="none" stroke="#b2a594" d="M1405.53,-371.51C1439.72,-370.45 1496.57,-362.81 1523.74,-326 1548.29,-292.75 1550.83,-171.22 1523.74,-140 1499.55,-112.13 1397.81,-105.88 1332.99,-104.8"/>
<polygon fill="#b2a594" stroke="#b2a594" points="1332.96,-101.3 1322.92,-104.67 1332.87,-108.3 1332.96,-101.3"/>
<text text-anchor="middle" x="1547.24" y="-228.8" font-family="Times,serif" font-size="14.00">1</text>
</g>
<!-- 29 -->
<g id="node31" class="node">
<title>29</title>
<polygon fill="#eceae8" stroke="#cdc3b4" points="964.07,-208 859.42,-208 859.42,-172 964.07,-172 964.07,-208"/>
<text text-anchor="middle" x="911.74" y="-186.4" font-family="Times,serif" font-size="12.00">d3&#45;transition 1.3.2</text>
</g>
<!-- 0&#45;&gt;29 -->
<g id="edge29" class="edge">
<title>0&#45;&gt;29</title>
<path fill="none" stroke="#b2a594" d="M1365.81,-353.87C1360.01,-347.01 1352.42,-339.83 1343.74,-336 1310.89,-321.51 1052.89,-341.98 1020.74,-326 974.29,-302.91 941.02,-249.81 924.2,-217.51"/>
<polygon fill="#b2a594" stroke="#b2a594" points="927.15,-215.57 919.52,-208.21 920.89,-218.72 927.15,-215.57"/>
<text text-anchor="middle" x="981.24" y="-271.8" font-family="Times,serif" font-size="14.00">1</text>
</g>
<!-- 30 -->
<g id="node32" class="node">
<title>30</title>
<polygon fill="#eceae8" stroke="#cdc3b4" points="2560.07,-294 2463.41,-294 2463.41,-258 2560.07,-258 2560.07,-294"/>
<text text-anchor="middle" x="2511.74" y="-272.4" font-family="Times,serif" font-size="12.00">d3&#45;voronoi 1.1.4</text>
</g>
<!-- 0&#45;&gt;30 -->
<g id="edge30" class="edge">
<title>0&#45;&gt;30</title>
<path fill="none" stroke="#b2a594" d="M1405.34,-370.87C1515.31,-370.07 1932.87,-364.54 2273.74,-326 2351.74,-317.18 2373.56,-313.14 2453.31,-294.23"/>
<polygon fill="#b2a594" stroke="#b2a594" points="2454.41,-297.57 2463.33,-291.85 2452.79,-290.76 2454.41,-297.57"/>
<text text-anchor="middle" x="2374.24" y="-314.8" font-family="Times,serif" font-size="14.00">1</text>
</g>
<!-- 31 -->
<g id="node33" class="node">
<title>31</title>
<polygon fill="#eceae8" stroke="#cdc3b4" points="802.4,-294 717.08,-294 717.08,-258 802.4,-258 802.4,-294"/>
<text text-anchor="middle" x="759.74" y="-272.4" font-family="Times,serif" font-size="12.00">d3&#45;zoom 1.8.3</text>
</g>
<!-- 0&#45;&gt;31 -->
<g id="edge31" class="edge">
<title>0&#45;&gt;31</title>
<path fill="none" stroke="#b2a594" d="M1365.83,-353.82C1360.04,-346.95 1352.45,-339.78 1343.74,-336 1289.3,-312.38 864.47,-348.95 809.74,-326 797.48,-320.86 786.57,-311.17 778.09,-301.75"/>
<polygon fill="#b2a594" stroke="#b2a594" points="780.69,-299.4 771.57,-294.01 775.34,-303.91 780.69,-299.4"/>
<text text-anchor="middle" x="813.24" y="-314.8" font-family="Times,serif" font-size="14.00">1</text>
</g>
<!-- 3&#45;&gt;8 -->
<g id="edge32" class="edge">
<title>3&#45;&gt;8</title>
<path fill="none" stroke="#b2a594" stroke-dasharray="5,2" d="M656.8,-257.65C658.83,-236.06 664.72,-198.77 681.74,-172 692.81,-154.59 709.93,-139.57 725.67,-128.19"/>
<polygon fill="#b2a594" stroke="#b2a594" points="728.01,-130.83 734.23,-122.25 724.02,-125.08 728.01,-130.83"/>
<text text-anchor="middle" x="685.24" y="-185.8" font-family="Times,serif" font-size="14.00">1</text>
</g>
<!-- 3&#45;&gt;9 -->
<g id="edge33" class="edge">
<title>3&#45;&gt;9</title>
<path fill="none" stroke="#b2a594" stroke-dasharray="5,2" d="M642.48,-257.6C633.41,-245.69 621.24,-229.71 611.09,-216.4"/>
<polygon fill="#b2a594" stroke="#b2a594" points="613.61,-213.93 604.77,-208.1 608.04,-218.17 613.61,-213.93"/>
<text text-anchor="middle" x="631.24" y="-228.8" font-family="Times,serif" font-size="14.00">1</text>
</g>
<!-- 3&#45;&gt;17 -->
<g id="edge34" class="edge">
<title>3&#45;&gt;17</title>
<path fill="none" stroke="#b2a594" stroke-dasharray="5,2" d="M677.3,-257.94C683.78,-252.46 690.76,-246.2 696.74,-240 723.54,-212.23 719.19,-194.23 750.74,-172 825.8,-119.1 863.27,-140.78 953.74,-122.95"/>
<polygon fill="#b2a594" stroke="#b2a594" points="954.48,-126.37 963.55,-120.9 953.05,-119.52 954.48,-126.37"/>
<text text-anchor="middle" x="754.24" y="-185.8" font-family="Times,serif" font-size="14.00">1</text>
</g>
<!-- 3&#45;&gt;24 -->
<g id="edge35" class="edge">
<title>3&#45;&gt;24</title>
<path fill="none" stroke="#b2a594" stroke-dasharray="5,2" d="M612.91,-269.86C575.44,-262.84 523.16,-246.38 497.74,-208 482.15,-184.45 495.31,-152.54 508.57,-130.51"/>
<polygon fill="#b2a594" stroke="#b2a594" points="511.56,-132.33 513.98,-122.01 505.65,-128.56 511.56,-132.33"/>
<text text-anchor="middle" x="501.24" y="-185.8" font-family="Times,serif" font-size="14.00">1</text>
</g>
<!-- 3&#45;&gt;29 -->
<g id="edge36" class="edge">
<title>3&#45;&gt;29</title>
<path fill="none" stroke="#b2a594" stroke-dasharray="5,2" d="M697.51,-257.99C722.59,-248.07 755.25,-235.64 784.74,-226 797.17,-221.94 823.85,-214.52 849.56,-207.55"/>
<polygon fill="#b2a594" stroke="#b2a594" points="850.6,-210.9 859.34,-204.91 848.77,-204.14 850.6,-210.9"/>
<text text-anchor="middle" x="788.24" y="-228.8" font-family="Times,serif" font-size="14.00">1</text>
</g>
<!-- 4&#45;&gt;1 -->
<g id="edge46" class="edge">
<title>4&#45;&gt;1</title>
<path fill="none" stroke="#b2a594" stroke-dasharray="5,2" d="M261.61,-257.6C246.46,-245.12 225.89,-228.18 209.29,-214.51"/>
<polygon fill="#b2a594" stroke="#b2a594" points="211.44,-211.75 201.5,-208.1 206.99,-217.15 211.44,-211.75"/>
<text text-anchor="middle" x="242.24" y="-228.8" font-family="Times,serif" font-size="14.00">1</text>
</g>
<!-- 4&#45;&gt;18 -->
<g id="edge47" class="edge">
<title>4&#45;&gt;18</title>
<path fill="none" stroke="#b2a594" stroke-dasharray="5,2" d="M300.77,-257.6C313.45,-245.35 330.59,-228.8 344.61,-215.26"/>
<polygon fill="#b2a594" stroke="#b2a594" points="347.27,-217.56 352.04,-208.1 342.41,-212.52 347.27,-217.56"/>
<text text-anchor="middle" x="335.24" y="-228.8" font-family="Times,serif" font-size="14.00">1</text>
</g>
<!-- 7&#45;&gt;1 -->
<g id="edge48" class="edge">
<title>7&#45;&gt;1</title>
<path fill="none" stroke="#b2a594" stroke-dasharray="5,2" d="M95.65,-257.8C111.52,-245.34 133.16,-228.35 150.65,-214.62"/>
<polygon fill="#b2a594" stroke="#b2a594" points="153.15,-217.11 158.86,-208.18 148.83,-211.6 153.15,-217.11"/>
<text text-anchor="middle" x="151.03" y="-228.8" font-family="Times,serif" font-size="14.00">^1.1.1</text>
</g>
<!-- 9&#45;&gt;8 -->
<g id="edge37" class="edge">
<title>9&#45;&gt;8</title>
<path fill="none" stroke="#b2a594" stroke-dasharray="5,2" d="M608.73,-171.78C619.86,-161.34 635.17,-148.44 650.74,-140 667.35,-131 686.6,-123.95 704.47,-118.61"/>
<polygon fill="#b2a594" stroke="#b2a594" points="705.57,-121.93 714.22,-115.82 703.64,-115.2 705.57,-121.93"/>
<text text-anchor="middle" x="654.24" y="-142.8" font-family="Times,serif" font-size="14.00">1</text>
</g>
<!-- 9&#45;&gt;24 -->
<g id="edge38" class="edge">
<title>9&#45;&gt;24</title>
<path fill="none" stroke="#b2a594" stroke-dasharray="5,2" d="M577.08,-171.72C572.43,-166.12 567.31,-159.85 562.74,-154 556.95,-146.58 550.83,-138.39 545.31,-130.86"/>
<polygon fill="#b2a594" stroke="#b2a594" points="547.88,-128.44 539.16,-122.42 542.22,-132.56 547.88,-128.44"/>
<text text-anchor="middle" x="566.24" y="-142.8" font-family="Times,serif" font-size="14.00">1</text>
</g>
<!-- 32 -->
<g id="node34" class="node">
<title>32</title>
<polygon fill="#eceae8" stroke="#cdc3b4" points="2094.38,-122 1989.1,-122 1989.1,-86 2094.38,-86 2094.38,-122"/>
<text text-anchor="middle" x="2041.74" y="-100.4" font-family="Times,serif" font-size="12.00">commander 2.20.3</text>
</g>
<!-- 10&#45;&gt;32 -->
<g id="edge49" class="edge">
<title>10&#45;&gt;32</title>
<path fill="none" stroke="#b2a594" d="M2049.67,-171.6C2048.32,-160.26 2046.53,-145.23 2044.99,-132.32"/>
<polygon fill="#b2a594" stroke="#b2a594" points="2048.43,-131.61 2043.78,-122.1 2041.48,-132.44 2048.43,-131.61"/>
<text text-anchor="middle" x="2051.24" y="-142.8" font-family="Times,serif" font-size="14.00">2</text>
</g>
<!-- 33 -->
<g id="node35" class="node">
<title>33</title>
<polygon fill="#eceae8" stroke="#cdc3b4" points="2207.23,-122 2112.26,-122 2112.26,-86 2207.23,-86 2207.23,-122"/>
<text text-anchor="middle" x="2159.74" y="-100.4" font-family="Times,serif" font-size="12.00">iconv&#45;lite 0.4.24</text>
</g>
<!-- 10&#45;&gt;33 -->
<g id="edge50" class="edge">
<title>10&#45;&gt;33</title>
<path fill="none" stroke="#b2a594" d="M2073.86,-171.8C2089.87,-159.34 2111.72,-142.35 2129.37,-128.62"/>
<polygon fill="#b2a594" stroke="#b2a594" points="2131.91,-131.08 2137.65,-122.18 2127.61,-125.56 2131.91,-131.08"/>
<text text-anchor="middle" x="2121.49" y="-142.8" font-family="Times,serif" font-size="14.00">0.4</text>
</g>
<!-- 34 -->
<g id="node36" class="node">
<title>34</title>
<polygon fill="#eceae8" stroke="#cdc3b4" points="2280.4,-122 2225.08,-122 2225.08,-86 2280.4,-86 2280.4,-122"/>
<text text-anchor="middle" x="2252.74" y="-100.4" font-family="Times,serif" font-size="12.00">rw 1.3.3</text>
</g>
<!-- 10&#45;&gt;34 -->
<g id="edge51" class="edge">
<title>10&#45;&gt;34</title>
<path fill="none" stroke="#b2a594" d="M2089.71,-174.02C2123.08,-160.74 2172.85,-140.6 2215.74,-122 2215.83,-121.96 2215.93,-121.92 2216.02,-121.88"/>
<polygon fill="#b2a594" stroke="#b2a594" points="2217.19,-125.19 2224.92,-117.94 2214.36,-118.79 2217.19,-125.19"/>
<text text-anchor="middle" x="2175.24" y="-142.8" font-family="Times,serif" font-size="14.00">1</text>
</g>
<!-- 12&#45;&gt;10 -->
<g id="edge53" class="edge">
<title>12&#45;&gt;10</title>
<path fill="none" stroke="#b2a594" stroke-dasharray="5,2" d="M2051.74,-257.6C2051.74,-246.26 2051.74,-231.23 2051.74,-218.32"/>
<polygon fill="#b2a594" stroke="#b2a594" points="2055.24,-218.1 2051.74,-208.1 2048.24,-218.1 2055.24,-218.1"/>
<text text-anchor="middle" x="2055.24" y="-228.8" font-family="Times,serif" font-size="14.00">1</text>
</g>
<!-- 13&#45;&gt;5 -->
<g id="edge54" class="edge">
<title>13&#45;&gt;5</title>
<path fill="none" stroke="#b2a594" stroke-dasharray="5,2" d="M1300.71,-257.8C1325.65,-244.79 1360.06,-226.83 1386.93,-212.81"/>
<polygon fill="#b2a594" stroke="#b2a594" points="1388.84,-215.76 1396.09,-208.03 1385.61,-209.56 1388.84,-215.76"/>
<text text-anchor="middle" x="1362.24" y="-228.8" font-family="Times,serif" font-size="14.00">1</text>
</g>
<!-- 13&#45;&gt;8 -->
<g id="edge55" class="edge">
<title>13&#45;&gt;8</title>
<path fill="none" stroke="#b2a594" stroke-dasharray="5,2" d="M1225.88,-259.25C1224.15,-258.79 1222.44,-258.37 1220.74,-258 1055.67,-221.66 982.5,-304.51 843.74,-208 814.77,-187.85 825.23,-167.2 802.74,-140 799.64,-136.25 796.14,-132.55 792.53,-129.02"/>
<polygon fill="#b2a594" stroke="#b2a594" points="794.79,-126.35 785.09,-122.1 790.03,-131.48 794.79,-126.35"/>
<text text-anchor="middle" x="847.24" y="-185.8" font-family="Times,serif" font-size="14.00">1</text>
</g>
<!-- 13&#45;&gt;20 -->
<g id="edge56" class="edge">
<title>13&#45;&gt;20</title>
<path fill="none" stroke="#b2a594" stroke-dasharray="5,2" d="M1265.78,-257.91C1265.37,-248.13 1266.12,-235.88 1270.74,-226 1272.46,-222.32 1274.75,-218.83 1277.36,-215.59"/>
<polygon fill="#b2a594" stroke="#b2a594" points="1280.11,-217.77 1284.34,-208.06 1274.97,-213.02 1280.11,-217.77"/>
<text text-anchor="middle" x="1274.24" y="-228.8" font-family="Times,serif" font-size="14.00">1</text>
</g>
<!-- 13&#45;&gt;28 -->
<g id="edge57" class="edge">
<title>13&#45;&gt;28</title>
<path fill="none" stroke="#b2a594" stroke-dasharray="5,2" d="M1258.14,-257.87C1247.9,-237.43 1234.13,-202.23 1241.74,-172 1245.39,-157.51 1252.84,-142.74 1260.03,-130.77"/>
<polygon fill="#b2a594" stroke="#b2a594" points="1263.05,-132.54 1265.4,-122.21 1257.12,-128.82 1263.05,-132.54"/>
<text text-anchor="middle" x="1245.24" y="-185.8" font-family="Times,serif" font-size="14.00">1</text>
</g>
<!-- 15&#45;&gt;1 -->
<g id="edge58" class="edge">
<title>15&#45;&gt;1</title>
<path fill="none" stroke="#b2a594" stroke-dasharray="5,2" d="M180.74,-257.6C180.74,-246.26 180.74,-231.23 180.74,-218.32"/>
<polygon fill="#b2a594" stroke="#b2a594" points="184.24,-218.1 180.74,-208.1 177.24,-218.1 184.24,-218.1"/>
<text text-anchor="middle" x="184.24" y="-228.8" font-family="Times,serif" font-size="14.00">1</text>
</g>
<!-- 17&#45;&gt;6 -->
<g id="edge39" class="edge">
<title>17&#45;&gt;6</title>
<path fill="none" stroke="#b2a594" stroke-dasharray="5,2" d="M1046.8,-85.8C1067.67,-73 1096.34,-55.42 1119.04,-41.51"/>
<polygon fill="#b2a594" stroke="#b2a594" points="1121.03,-44.39 1127.72,-36.18 1117.37,-38.42 1121.03,-44.39"/>
<text text-anchor="middle" x="1099.24" y="-56.8" font-family="Times,serif" font-size="14.00">1</text>
</g>
<!-- 22&#45;&gt;1 -->
<g id="edge59" class="edge">
<title>22&#45;&gt;1</title>
<path fill="none" stroke="#b2a594" stroke-dasharray="5,2" d="M1575.13,-271.35C1495.19,-264.21 1325.73,-248.34 1300.17,-240 1288.27,-236.12 1287.8,-229.33 1275.74,-226 1173.44,-197.73 426.61,-215.41 320.74,-208 291.52,-205.96 259.04,-202.11 232.73,-198.59"/>
<polygon fill="#b2a594" stroke="#b2a594" points="232.98,-195.1 222.6,-197.21 232.03,-202.03 232.98,-195.1"/>
<text text-anchor="middle" x="1318.03" y="-228.8" font-family="Times,serif" font-size="14.00">^1.2.0</text>
</g>
<!-- 22&#45;&gt;5 -->
<g id="edge60" class="edge">
<title>22&#45;&gt;5</title>
<path fill="none" stroke="#b2a594" stroke-dasharray="5,2" d="M1599.43,-257.87C1587.9,-247.33 1571.95,-234.29 1555.74,-226 1535.97,-215.88 1512.92,-208.41 1491.92,-203.02"/>
<polygon fill="#b2a594" stroke="#b2a594" points="1492.67,-199.6 1482.13,-200.62 1491,-206.4 1492.67,-199.6"/>
<text text-anchor="middle" x="1581.24" y="-228.8" font-family="Times,serif" font-size="14.00">1</text>
</g>
<!-- 22&#45;&gt;14 -->
<g id="edge61" class="edge">
<title>22&#45;&gt;14</title>
<path fill="none" stroke="#b2a594" stroke-dasharray="5,2" d="M1656.76,-257.89C1679.96,-248.16 1709.84,-235.97 1736.74,-226 1752.71,-220.09 1770.2,-214.07 1786.25,-208.74"/>
<polygon fill="#b2a594" stroke="#b2a594" points="1787.63,-211.97 1796.03,-205.51 1785.44,-205.32 1787.63,-211.97"/>
<text text-anchor="middle" x="1740.24" y="-228.8" font-family="Times,serif" font-size="14.00">1</text>
</g>
<!-- 22&#45;&gt;17 -->
<g id="edge62" class="edge">
<title>22&#45;&gt;17</title>
<path fill="none" stroke="#b2a594" stroke-dasharray="5,2" d="M1608.49,-257.64C1603.06,-247.53 1595.21,-235.03 1585.74,-226 1550.6,-192.48 1536.85,-187.25 1490.74,-172 1320.42,-115.67 1264.15,-155.16 1084.2,-122.11"/>
<polygon fill="#b2a594" stroke="#b2a594" points="1084.61,-118.63 1074.14,-120.21 1083.31,-125.51 1084.61,-118.63"/>
<text text-anchor="middle" x="1569.24" y="-185.8" font-family="Times,serif" font-size="14.00">1</text>
</g>
<!-- 22&#45;&gt;26 -->
<g id="edge63" class="edge">
<title>22&#45;&gt;26</title>
<path fill="none" stroke="#b2a594" stroke-dasharray="5,2" d="M1618.62,-257.78C1621.61,-236.32 1628.91,-199.16 1645.74,-172 1656.12,-155.25 1671.87,-140.17 1686.18,-128.57"/>
<polygon fill="#b2a594" stroke="#b2a594" points="1688.66,-131.07 1694.39,-122.16 1684.35,-125.56 1688.66,-131.07"/>
<text text-anchor="middle" x="1649.24" y="-185.8" font-family="Times,serif" font-size="14.00">1</text>
</g>
<!-- 22&#45;&gt;27 -->
<g id="edge64" class="edge">
<title>22&#45;&gt;27</title>
<path fill="none" stroke="#b2a594" stroke-dasharray="5,2" d="M1638.08,-257.6C1653.38,-245.12 1674.15,-228.18 1690.91,-214.51"/>
<polygon fill="#b2a594" stroke="#b2a594" points="1693.24,-217.13 1698.78,-208.1 1688.82,-211.7 1693.24,-217.13"/>
<text text-anchor="middle" x="1678.24" y="-228.8" font-family="Times,serif" font-size="14.00">2</text>
</g>
<!-- 23&#45;&gt;6 -->
<g id="edge66" class="edge">
<title>23&#45;&gt;6</title>
<path fill="none" stroke="#b2a594" stroke-dasharray="5,2" d="M1147.89,-171.87C1159.77,-159.35 1174.25,-141.25 1180.74,-122 1189.37,-96.41 1179.89,-66.31 1170.23,-45.28"/>
<polygon fill="#b2a594" stroke="#b2a594" points="1173.24,-43.47 1165.69,-36.03 1166.95,-46.55 1173.24,-43.47"/>
<text text-anchor="middle" x="1188.24" y="-99.8" font-family="Times,serif" font-size="14.00">1</text>
</g>
<!-- 23&#45;&gt;17 -->
<g id="edge67" class="edge">
<title>23&#45;&gt;17</title>
<path fill="none" stroke="#b2a594" stroke-dasharray="5,2" d="M1122.83,-171.7C1117.96,-161.36 1110.55,-148.6 1100.74,-140 1094.93,-134.91 1088.27,-130.47 1081.31,-126.62"/>
<polygon fill="#b2a594" stroke="#b2a594" points="1082.87,-123.49 1072.37,-122.06 1079.69,-129.73 1082.87,-123.49"/>
<text text-anchor="middle" x="1116.24" y="-142.8" font-family="Times,serif" font-size="14.00">1</text>
</g>
<!-- 25&#45;&gt;18 -->
<g id="edge68" class="edge">
<title>25&#45;&gt;18</title>
<path fill="none" stroke="#b2a594" stroke-dasharray="5,2" d="M383.22,-257.6C380.9,-246.14 377.82,-230.93 375.19,-217.93"/>
<polygon fill="#b2a594" stroke="#b2a594" points="378.61,-217.2 373.2,-208.1 371.75,-218.59 378.61,-217.2"/>
<text text-anchor="middle" x="383.24" y="-228.8" font-family="Times,serif" font-size="14.00">1</text>
</g>
<!-- 27&#45;&gt;26 -->
<g id="edge65" class="edge">
<title>27&#45;&gt;26</title>
<path fill="none" stroke="#b2a594" stroke-dasharray="5,2" d="M1719.74,-171.6C1719.74,-160.26 1719.74,-145.23 1719.74,-132.32"/>
<polygon fill="#b2a594" stroke="#b2a594" points="1723.24,-132.1 1719.74,-122.1 1716.24,-132.1 1723.24,-132.1"/>
<text text-anchor="middle" x="1723.24" y="-142.8" font-family="Times,serif" font-size="14.00">1</text>
</g>
<!-- 29&#45;&gt;6 -->
<g id="edge40" class="edge">
<title>29&#45;&gt;6</title>
<path fill="none" stroke="#b2a594" stroke-dasharray="5,2" d="M913.1,-171.93C915.81,-149.24 923.88,-109.28 947.74,-86 989.77,-44.99 1057.02,-29.08 1103.63,-22.91"/>
<polygon fill="#b2a594" stroke="#b2a594" points="1104.32,-26.35 1113.83,-21.67 1103.48,-19.4 1104.32,-26.35"/>
<text text-anchor="middle" x="951.24" y="-99.8" font-family="Times,serif" font-size="14.00">1</text>
</g>
<!-- 29&#45;&gt;8 -->
<g id="edge41" class="edge">
<title>29&#45;&gt;8</title>
<path fill="none" stroke="#b2a594" stroke-dasharray="5,2" d="M892.58,-171.88C880.57,-161.73 864.44,-149.11 848.74,-140 840.05,-134.95 830.48,-130.27 821,-126.08"/>
<polygon fill="#b2a594" stroke="#b2a594" points="822.16,-122.77 811.59,-122.06 819.41,-129.2 822.16,-122.77"/>
<text text-anchor="middle" x="873.24" y="-142.8" font-family="Times,serif" font-size="14.00">1</text>
</g>
<!-- 29&#45;&gt;11 -->
<g id="edge42" class="edge">
<title>29&#45;&gt;11</title>
<path fill="none" stroke="#b2a594" stroke-dasharray="5,2" d="M956.53,-171.9C992.97,-157.99 1044.36,-138.36 1082.06,-123.97"/>
<polygon fill="#b2a594" stroke="#b2a594" points="1083.73,-127.08 1091.82,-120.24 1081.23,-120.54 1083.73,-127.08"/>
<text text-anchor="middle" x="1039.24" y="-142.8" font-family="Times,serif" font-size="14.00">1</text>
</g>
<!-- 29&#45;&gt;17 -->
<g id="edge43" class="edge">
<title>29&#45;&gt;17</title>
<path fill="none" stroke="#b2a594" stroke-dasharray="5,2" d="M930.2,-171.88C940.9,-162.2 954.78,-150.06 967.74,-140 972.92,-135.98 978.53,-131.89 984.06,-127.99"/>
<polygon fill="#b2a594" stroke="#b2a594" points="986.41,-130.62 992.64,-122.05 982.42,-124.87 986.41,-130.62"/>
<text text-anchor="middle" x="971.24" y="-142.8" font-family="Times,serif" font-size="14.00">1</text>
</g>
<!-- 29&#45;&gt;24 -->
<g id="edge44" class="edge">
<title>29&#45;&gt;24</title>
<path fill="none" stroke="#b2a594" stroke-dasharray="5,2" d="M859.33,-174.58C854.75,-173.6 850.18,-172.72 845.74,-172 789.77,-162.89 644.24,-174 591.17,-154 583.09,-150.96 567.92,-139.54 554.33,-128.5"/>
<polygon fill="#b2a594" stroke="#b2a594" points="556.52,-125.77 546.58,-122.1 552.07,-131.17 556.52,-125.77"/>
<text text-anchor="middle" x="609.03" y="-142.8" font-family="Times,serif" font-size="14.00">^1.1.0</text>
</g>
<!-- 29&#45;&gt;28 -->
<g id="edge45" class="edge">
<title>29&#45;&gt;28</title>
<path fill="none" stroke="#b2a594" stroke-dasharray="5,2" d="M964.24,-175.44C1000.36,-166.11 1042.55,-155.18 1046.74,-154 1067.31,-148.21 1071.88,-144.64 1092.74,-140 1147.96,-127.73 1163.43,-133.86 1218.74,-122 1220,-121.73 1221.27,-121.45 1222.56,-121.15"/>
<polygon fill="#b2a594" stroke="#b2a594" points="1223.6,-124.5 1232.48,-118.73 1221.94,-117.7 1223.6,-124.5"/>
<text text-anchor="middle" x="1096.24" y="-142.8" font-family="Times,serif" font-size="14.00">1</text>
</g>
<!-- 31&#45;&gt;8 -->
<g id="edge69" class="edge">
<title>31&#45;&gt;8</title>
<path fill="none" stroke="#b2a594" stroke-dasharray="5,2" d="M760.15,-257.76C760.84,-228.16 762.27,-167.43 763.1,-132.11"/>
<polygon fill="#b2a594" stroke="#b2a594" points="766.6,-132.11 763.34,-122.03 759.61,-131.94 766.6,-132.11"/>
<text text-anchor="middle" x="766.24" y="-185.8" font-family="Times,serif" font-size="14.00">1</text>
</g>
<!-- 31&#45;&gt;9 -->
<g id="edge70" class="edge">
<title>31&#45;&gt;9</title>
<path fill="none" stroke="#b2a594" stroke-dasharray="5,2" d="M725.34,-257.8C699.21,-244.73 663.09,-226.68 635,-212.63"/>
<polygon fill="#b2a594" stroke="#b2a594" points="636.32,-209.38 625.81,-208.03 633.19,-215.64 636.32,-209.38"/>
<text text-anchor="middle" x="690.24" y="-228.8" font-family="Times,serif" font-size="14.00">1</text>
</g>
<!-- 31&#45;&gt;17 -->
<g id="edge71" class="edge">
<title>31&#45;&gt;17</title>
<path fill="none" stroke="#b2a594" stroke-dasharray="5,2" d="M802.82,-271.8C849.85,-266.18 924.84,-250.68 972.74,-208 975.83,-205.25 994.87,-161.29 1007.46,-131.7"/>
<polygon fill="#b2a594" stroke="#b2a594" points="1010.77,-132.87 1011.46,-122.29 1004.33,-130.13 1010.77,-132.87"/>
<text text-anchor="middle" x="993.24" y="-185.8" font-family="Times,serif" font-size="14.00">1</text>
</g>
<!-- 31&#45;&gt;24 -->
<g id="edge72" class="edge">
<title>31&#45;&gt;24</title>
<path fill="none" stroke="#b2a594" stroke-dasharray="5,2" d="M716.92,-260.9C713.82,-259.91 710.73,-258.93 707.74,-258 659.94,-243.11 647.84,-239.89 599.74,-226 571.35,-217.8 554.59,-230.75 535.74,-208 518.44,-187.12 518.42,-155.01 521.32,-132.2"/>
<polygon fill="#b2a594" stroke="#b2a594" points="524.8,-132.56 522.85,-122.14 517.88,-131.5 524.8,-132.56"/>
<text text-anchor="middle" x="539.24" y="-185.8" font-family="Times,serif" font-size="14.00">1</text>
</g>
<!-- 31&#45;&gt;29 -->
<g id="edge73" class="edge">
<title>31&#45;&gt;29</title>
<path fill="none" stroke="#b2a594" stroke-dasharray="5,2" d="M791.88,-257.85C802.38,-252.21 814.08,-245.87 824.74,-240 840.46,-231.34 857.69,-221.68 872.64,-213.23"/>
<polygon fill="#b2a594" stroke="#b2a594" points="874.64,-216.12 881.62,-208.15 871.2,-210.03 874.64,-216.12"/>
<text text-anchor="middle" x="852.24" y="-228.8" font-family="Times,serif" font-size="14.00">1</text>
</g>
<!-- 35 -->
<g id="node37" class="node">
<title>35</title>
<polygon fill="#eceae8" stroke="#cdc3b4" points="2209.42,-36 2110.06,-36 2110.06,0 2209.42,0 2209.42,-36"/>
<text text-anchor="middle" x="2159.74" y="-14.4" font-family="Times,serif" font-size="12.00">safer&#45;buffer 2.1.2</text>
</g>
<!-- 33&#45;&gt;35 -->
<g id="edge52" class="edge">
<title>33&#45;&gt;35</title>
<path fill="none" stroke="#b2a594" d="M2159.74,-85.6C2159.74,-74.26 2159.74,-59.23 2159.74,-46.32"/>
<polygon fill="#b2a594" stroke="#b2a594" points="2163.24,-46.1 2159.74,-36.1 2156.24,-46.1 2163.24,-46.1"/>
<text text-anchor="middle" x="2194.33" y="-56.8" font-family="Times,serif" font-size="14.00">&gt;= 2.1.2 &lt; 3</text>
</g>
</g>
</svg>
